<svg width="24" height="24" viewBox="0 0 24 24" fill="none" xmlns="http://www.w3.org/2000/svg">
<g clip-path="url(#clip0_1_218)">
<path d="M2.57143 16.2857H14.5714C15.5182 16.2857 16.2857 15.5182 16.2857 14.5714V2.57142C16.2857 1.62465 15.5182 0.857134 14.5714 0.857134L2.57143 0.857134C1.62465 0.857134 0.857141 1.62465 0.857141 2.57142L0.857141 14.5714C0.857141 15.5182 1.62465 16.2857 2.57143 16.2857Z" stroke="white" stroke-linecap="round" stroke-linejoin="round"/>
<path d="M20.5714 8.05716L21.9086 8.48573C22.1243 8.55555 22.324 8.66746 22.4962 8.81501C22.6684 8.96255 22.8096 9.14278 22.9116 9.34527C23.0137 9.54776 23.0745 9.76847 23.0907 9.99465C23.1068 10.2208 23.078 10.4479 23.0057 10.6629L19.2686 21.96C19.1274 22.3918 18.8206 22.7498 18.4156 22.9555C18.0106 23.1612 17.5405 23.1978 17.1086 23.0572L9.53143 20.5714" stroke="white" stroke-linecap="round" stroke-linejoin="round"/>
<path d="M0.857143 12H16.2857" stroke="white" stroke-linecap="round" stroke-linejoin="round"/>
</g>
<defs>
<clipPath id="clip0_1_218">
<rect width="24" height="24" fill="white"/>
</clipPath>
</defs>
</svg>
